<?xml version="1.0" encoding="UTF-8" standalone="no"?>
<!-- Created with Inkscape (http://www.inkscape.org/) -->

<svg
   xmlns:dc="http://purl.org/dc/elements/1.1/"
   xmlns:cc="http://creativecommons.org/ns#"
   xmlns:rdf="http://www.w3.org/1999/02/22-rdf-syntax-ns#"
   xmlns:svg="http://www.w3.org/2000/svg"
   xmlns="http://www.w3.org/2000/svg"
   xmlns:xlink="http://www.w3.org/1999/xlink"
   xmlns:sodipodi="http://sodipodi.sourceforge.net/DTD/sodipodi-0.dtd"
   xmlns:inkscape="http://www.inkscape.org/namespaces/inkscape"
   width="210mm"
   height="297mm"
   viewBox="0 0 744.09448819 1052.3622047"
   id="svg2"
   version="1.1"
   inkscape:version="0.91 r13725"
   sodipodi:docname="slothicorn.svg">
  <defs
     id="defs4">
    <clipPath
       clipPathUnits="userSpaceOnUse"
       id="clipPath4379">
      <path
         inkscape:export-ydpi="300"
         inkscape:export-xdpi="300"
         id="path4381"
         style="color:#000000;display:inline;overflow:visible;visibility:visible;opacity:1;fill:#000000;fill-opacity:1;fill-rule:nonzero;stroke:#000000;stroke-width:3.95744705;stroke-linecap:round;stroke-linejoin:round;stroke-miterlimit:4;stroke-dasharray:none;stroke-dashoffset:0;stroke-opacity:1;marker:none;enable-background:accumulate"
         sodipodi:type="arc"
         sodipodi:cx="869.99384"
         sodipodi:cy="-1203.3527"
         sodipodi:rx="44.521278"
         sodipodi:ry="44.521278"
         sodipodi:start="0"
         sodipodi:end="3.1415927"
         d="m 914.51511,-1203.3527 a 44.521278,44.521278 0 0 1 -22.26064,38.5566 44.521278,44.521278 0 0 1 -44.52127,0 44.521278,44.521278 0 0 1 -22.26064,-38.5566 l 44.52128,0 z"
         transform="scale(-1,-1)" />
    </clipPath>
  </defs>
  <sodipodi:namedview
     id="base"
     pagecolor="#ffffff"
     bordercolor="#666666"
     borderopacity="1.0"
     inkscape:pageopacity="0.0"
     inkscape:pageshadow="2"
     inkscape:zoom="0.24748737"
     inkscape:cx="-87.225514"
     inkscape:cy="1013.0146"
     inkscape:document-units="px"
     inkscape:current-layer="layer1"
     showgrid="false"
     showguides="false"
     inkscape:window-width="1600"
     inkscape:window-height="837"
     inkscape:window-x="-8"
     inkscape:window-y="-8"
     inkscape:window-maximized="1" />
  <metadata
     id="metadata7">
    <rdf:RDF>
      <cc:Work
         rdf:about="">
        <dc:format>image/svg+xml</dc:format>
        <dc:type
           rdf:resource="http://purl.org/dc/dcmitype/StillImage" />
        <dc:title></dc:title>
      </cc:Work>
    </rdf:RDF>
  </metadata>
  <g
     inkscape:label="Layer 1"
     inkscape:groupmode="layer"
     id="layer1">
    <g
       transform="matrix(1.5895332,0,0,1.5895332,1248.092,-656.77575)"
       id="g4740"
       inkscape:export-xdpi="300"
       inkscape:export-ydpi="300">
      <path
         style="fill:#cba78e;fill-opacity:1;fill-rule:evenodd;stroke:#000000;stroke-width:6;stroke-linecap:butt;stroke-linejoin:miter;stroke-opacity:1"
         d="m -670.71429,725.21935 c 0,0 -15.70758,7.68402 -19.28571,15 -2.61519,5.34711 -2.03731,12.26427 0,17.85714 2.6607,7.30421 9.02593,12.88308 15,17.85714 17.04421,14.19114 57.85714,32.85715 57.85714,32.85715 0,0 -13.27021,57.72502 -14.28571,87.14285 -0.52801,15.2958 -1.35223,31.48566 4.28571,45.71429 3.00008,7.57139 7.42481,16.29523 15,19.28571 9.86691,3.89519 23.2992,1.81482 31.42857,-5 5.02024,-4.20845 5.4827,-12.08921 6.42858,-18.57143 0.79146,-5.42392 -0.71429,-16.42857 -0.71429,-16.42857 0,0 18.90693,5.2796 28.57143,5 8.31283,-0.24049 24.28571,-5.71428 24.28571,-5.71428 0,0 -1.64785,11.97361 -0.71428,17.85714 1.07433,6.77062 1.80801,14.9805 7.14285,19.28571 7.86106,6.34386 20.82263,8.50671 30,4.28572 8.46111,-3.89156 12.39616,-14.62969 15,-23.57143 6.78999,-23.3172 2.25602,-48.67644 0,-72.85714 -1.91303,-20.50447 -11.42857,-60.71429 -11.42857,-60.71429 0,0 25.18881,-13.09428 37.14286,-20.71428 11.64661,-7.42403 28.96173,-11.26611 33.57143,-24.28572 3.04573,-8.60234 -2.21831,-18.74577 -7.14286,-26.42857 -3.01052,-4.69672 -12.85714,-10.71429 -12.85714,-10.71429 z"
         id="path4742"
         inkscape:connector-curvature="0"
         sodipodi:nodetypes="caaacaaaaacacaaaaacaaacc" />
      <path
         inkscape:connector-curvature="0"
         style="fill:#cba78e;fill-opacity:1;fill-rule:evenodd;stroke:#000000;stroke-width:6;stroke-linecap:butt;stroke-linejoin:miter;stroke-opacity:1"
         d="m -554.33008,568.96484 c -2.63784,0.0114 -5.27449,0.0938 -7.90039,0.24414 -16.12733,0.92332 -33.06894,1.45638 -47.76953,8.15235 -15.85643,7.22244 -29.57275,19.49598 -40.45508,33.10351 -9.75457,12.19735 -16.77216,26.85379 -20.97265,41.89649 -3.98309,14.26416 -5.60045,29.61681 -3.57227,44.28711 2.15624,15.59657 8.0397,30.96061 16.42773,44.28515 5.2926,8.40741 12.42426,15.95396 20.71485,21.42774 11.69769,7.72329 25.62603,11.85139 39.28515,15 18.40067,4.2416 37.54983,5.35603 56.42969,5 17.03701,-0.32128 34.56512,-0.99182 50.71485,-6.42774 13.54683,-4.5598 26.13306,-12.31186 37.14257,-21.42773 8.71247,-7.21392 18.01042,-15.18521 22.14258,-25.71484 7.05008,-17.96512 5.51178,-38.85486 2.14258,-57.85743 -3.49706,-19.72373 -10.89846,-39.46631 -22.73438,-55.62695 -9.9184,-13.5425 -23.93918,-24.22495 -38.69335,-32.23047 -12.04735,-6.53682 -25.79527,-9.72621 -39.28711,-12.14258 -7.76701,-1.39106 -15.7017,-2.00302 -23.61524,-1.96875 z m 70.50977,69.72266 c 5.8891,0.034 11.64552,0.75737 16.625,3.55273 7.54597,4.23614 12.29125,12.73632 15.65625,20.70899 3.9072,9.2573 5.74905,19.82293 4.54687,29.79883 -1.74315,14.46495 -8.08197,28.63536 -16.66797,40.40625 -9.22276,12.64385 -21.91259,23.20443 -35.85937,30.30468 -15.13791,7.70665 -32.51487,11.77431 -49.49805,12.1211 -17.00069,0.34715 -34.00913,-4.32456 -50.00195,-10.10156 -9.35173,-3.37807 -18.76834,-7.61136 -26.26563,-14.14258 -10.53721,-9.17943 -19.27304,-20.9822 -24.74804,-33.83985 -3.81709,-8.96416 -5.12166,-19.0463 -5.05078,-28.78906 0.0524,-7.19801 1.25858,-14.5742 4.04101,-21.21289 3.08694,-7.36521 7.49264,-14.59571 13.63672,-19.69726 5.39218,-4.47725 12.25057,-7.62923 19.19336,-8.5879 21.74625,-3.00276 43.2034,9.86991 65.1543,9.59766 18.79225,-0.23308 36.77686,-8.92714 55.55859,-9.59766 4.43863,-0.15846 9.09927,-0.54794 13.67969,-0.52148 z"
         id="path4744" />
      <path
         style="fill:#fce0cd;fill-opacity:1;fill-rule:evenodd;stroke:none;stroke-width:1px;stroke-linecap:butt;stroke-linejoin:miter;stroke-opacity:1"
         d="m -651.04332,667.49408 c 3.08694,-7.36521 7.49298,-14.59642 13.63706,-19.69797 5.39218,-4.47724 12.25011,-7.62763 19.1929,-8.5863 21.74625,-3.00276 43.20394,9.8687 65.15484,9.59645 18.79225,-0.23308 36.77666,-8.92593 55.55839,-9.59645 10.14545,-0.3622 21.45218,-1.93908 30.30458,3.03046 7.54597,4.23614 12.29236,12.73546 15.65736,20.70813 3.9072,9.2573 5.74787,19.8236 4.54569,29.7995 -1.74315,14.46495 -8.08152,28.63521 -16.66752,40.4061 -9.22276,12.64385 -21.91363,23.20433 -35.86041,30.30458 -15.13791,7.70665 -32.5143,11.77504 -49.49748,12.12183 -17.00069,0.34715 -34.00973,-4.32453 -50.00255,-10.10153 -9.35173,-3.37807 -18.76668,-7.61091 -26.26397,-14.14213 -10.53721,-9.17943 -19.27373,-20.98246 -24.74873,-33.84011 -3.81709,-8.96416 -5.12165,-19.04659 -5.05077,-28.78935 0.0524,-7.19801 1.25818,-14.57452 4.04061,-21.21321 z"
         id="path4746"
         inkscape:connector-curvature="0"
         sodipodi:nodetypes="aaaaaaaaaaaaaaaa" />
      <path
         style="fill:#000000;fill-opacity:1;fill-rule:evenodd;stroke:#000000;stroke-width:1px;stroke-linecap:butt;stroke-linejoin:miter;stroke-opacity:1"
         d="m -552.3009,714.97125 c 0,0 -15.19564,-3.49247 -15.65737,-9.59644 -0.5317,-7.0289 9.15808,-12.84516 16.16244,-13.63706 6.21015,-0.70211 15.47603,3.96643 16.66752,10.10152 1.22895,6.32795 -12.62691,13.13198 -12.62691,13.13198 0,0 4.78464,7.38179 8.5863,9.09138 2.45796,1.10533 5.40664,0.85082 8.08122,0.25254 3.64802,-0.81603 8.83883,-6.566 8.83883,-6.566 l 1.76777,3.78808 c 0,0 -7.28584,4.24203 -10.6066,6.81853 -3.81192,2.95758 -6.12825,8.05388 -10.6066,9.84898 -5.5482,2.22394 -12.30016,2.26029 -17.93021,0.25254 -4.55823,-1.62553 -7.35474,-6.29347 -11.11168,-9.34391 -3.07217,-2.49444 -9.34391,-7.32361 -9.34391,-7.32361 l 2.27284,-3.53553 c 0,0 6.83709,7.09436 11.36422,7.57614 3.4197,0.36392 6.95308,-1.58821 9.59645,-3.78807 1.83125,-1.52399 3.78807,-6.06091 3.78807,-6.06091 z"
         id="path4748"
         inkscape:connector-curvature="0"
         sodipodi:nodetypes="cssscasccssssccsscc" />
      <path
         style="fill:#db1c2b;fill-opacity:1;fill-rule:evenodd;stroke:#000000;stroke-width:1px;stroke-linecap:butt;stroke-linejoin:miter;stroke-opacity:1"
         d="m -550.2806,719.2644 c 0,0 4.04628,5.05911 6.81853,6.56599 2.27839,1.23843 7.57614,1.76777 7.57614,1.76777 0,0 -5.27845,5.82215 -8.83883,7.07107 -3.9717,1.3932 -8.56381,1.09846 -12.62691,0 -3.38679,-0.91561 -9.09137,-5.3033 -9.09137,-5.3033 0,0 7.53876,-1.21275 10.6066,-3.283 2.43023,-1.63998 5.55584,-6.81853 5.55584,-6.81853 z"
         id="path4750"
         inkscape:connector-curvature="0"
         sodipodi:nodetypes="cacsscsc" />
      <ellipse
         style="color:#000000;display:inline;overflow:visible;visibility:visible;opacity:1;fill:#fce0cd;fill-opacity:1;fill-rule:nonzero;stroke:none;stroke-width:4;stroke-linecap:round;stroke-linejoin:round;stroke-miterlimit:4;stroke-dasharray:none;stroke-dashoffset:0;stroke-opacity:1;marker:none;enable-background:accumulate"
         id="ellipse4752"
         cx="-551.1333"
         cy="849.19067"
         rx="60"
         ry="56.42857" />
      <path
         inkscape:export-ydpi="300"
         inkscape:export-xdpi="300"
         id="path4754"
         style="color:#000000;display:inline;overflow:visible;visibility:visible;opacity:1;fill:#000000;fill-opacity:1;fill-rule:nonzero;stroke:#000000;stroke-width:3.97884703;stroke-linecap:round;stroke-linejoin:round;stroke-miterlimit:4;stroke-dasharray:none;stroke-dashoffset:0;stroke-opacity:1;marker:none;enable-background:accumulate"
         sodipodi:type="arc"
         sodipodi:cx="551.1333"
         sodipodi:cy="-861.71106"
         sodipodi:rx="44.762024"
         sodipodi:ry="44.762024"
         sodipodi:start="0"
         sodipodi:end="3.1415927"
         d="m 595.89532,-861.71106 a 44.762024,44.762024 0 0 1 -22.38101,38.76505 44.762024,44.762024 0 0 1 -44.76202,0 44.762024,44.762024 0 0 1 -22.38101,-38.76505 l 44.76202,0 z"
         transform="scale(-1,-1)" />
      <image
         sodipodi:absref="C:\Users\Computer\Documents\slothicorn\Website\Rainbow Circles300.png"
         xlink:href="Rainbow Circles300.png"
         transform="translate(318.86053,-341.76138)"
         clip-path="url(#clipPath4379)"
         width="93"
         height="93"
         preserveAspectRatio="none"
         id="image4756"
         x="-916.49384"
         y="1156.8539" />
      <path
         inkscape:export-ydpi="300"
         inkscape:export-xdpi="300"
         id="path4758"
         style="color:#000000;display:inline;overflow:visible;visibility:visible;opacity:1;fill:#fce0cd;fill-opacity:1;fill-rule:nonzero;stroke:none;stroke-width:4;stroke-linecap:round;stroke-linejoin:round;stroke-miterlimit:4;stroke-dasharray:none;stroke-dashoffset:0;stroke-opacity:1;marker:none;enable-background:accumulate"
         sodipodi:type="arc"
         sodipodi:cx="551.01709"
         sodipodi:cy="-863.98285"
         sodipodi:rx="19.904478"
         sodipodi:ry="20.59576"
         sodipodi:start="0"
         sodipodi:end="3.1415927"
         d="m 570.92157,-863.98285 a 19.904478,20.59576 0 0 1 -9.95224,17.83645 19.904478,20.59576 0 0 1 -19.90448,0 19.904478,20.59576 0 0 1 -9.95224,-17.83645 l 19.90448,0 z"
         transform="scale(-1,-1)" />
      <path
         style="fill:none;fill-rule:evenodd;stroke:#000000;stroke-width:4;stroke-linecap:butt;stroke-linejoin:miter;stroke-opacity:1"
         d="m -595.46665,861.55244 26.11101,0.18013 c 0,0 -0.47077,-7.88375 5.89733,-13.83391 4.22846,-3.95095 10.69194,-4.56758 11.89459,-4.59355 1.1838,-0.0256 9.4735,0.74599 14.07844,6.24578 4.60495,5.49978 4.37743,12.18856 4.37743,12.18856 l 26.4815,-0.0607"
         id="path4760"
         inkscape:connector-curvature="0"
         sodipodi:nodetypes="ccsszcc" />
      <g
         id="g4762"
         transform="translate(-0.411444,0)">
        <ellipse
           transform="matrix(0.80582953,-0.59214759,0.58855512,0.80845709,0,0)"
           ry="31.360962"
           rx="36.971535"
           cy="196.26544"
           cx="-912.59198"
           id="ellipse4764"
           style="color:#000000;display:inline;overflow:visible;visibility:visible;opacity:1;fill:#a59182;fill-opacity:1;fill-rule:nonzero;stroke:none;stroke-width:4;stroke-linecap:round;stroke-linejoin:round;stroke-miterlimit:4;stroke-dasharray:none;stroke-dashoffset:0;stroke-opacity:1;marker:none;enable-background:accumulate" />
        <circle
           r="19.066629"
           cy="693.88428"
           cx="-618.84473"
           id="circle4766"
           style="color:#000000;display:inline;overflow:visible;visibility:visible;opacity:1;fill:#000000;fill-opacity:1;fill-rule:nonzero;stroke:none;stroke-width:4;stroke-linecap:round;stroke-linejoin:round;stroke-miterlimit:4;stroke-dasharray:none;stroke-dashoffset:0;stroke-opacity:1;marker:none;enable-background:accumulate" />
        <ellipse
           ry="8.3337584"
           rx="15.365367"
           cy="726.33551"
           cx="-619.76801"
           id="ellipse4768"
           style="color:#000000;display:inline;overflow:visible;visibility:visible;opacity:1;fill:#f5989d;fill-opacity:1;fill-rule:nonzero;stroke:none;stroke-width:4;stroke-linecap:round;stroke-linejoin:round;stroke-miterlimit:4;stroke-dasharray:none;stroke-dashoffset:0;stroke-opacity:1;marker:none;enable-background:accumulate" />
        <circle
           r="9.0913734"
           cy="689.71741"
           cx="-615.68799"
           id="circle4770"
           style="color:#000000;display:inline;overflow:visible;visibility:visible;opacity:1;fill:#ffffff;fill-opacity:1;fill-rule:nonzero;stroke:none;stroke-width:4;stroke-linecap:round;stroke-linejoin:round;stroke-miterlimit:4;stroke-dasharray:none;stroke-dashoffset:0;stroke-opacity:1;marker:none;enable-background:accumulate" />
        <circle
           style="color:#000000;display:inline;overflow:visible;visibility:visible;opacity:1;fill:#ffffff;fill-opacity:1;fill-rule:nonzero;stroke:none;stroke-width:4;stroke-linecap:round;stroke-linejoin:round;stroke-miterlimit:4;stroke-dasharray:none;stroke-dashoffset:0;stroke-opacity:1;marker:none;enable-background:accumulate"
           id="circle4772"
           cx="-618.59216"
           cy="703.60699"
           r="4.7982249" />
      </g>
      <g
         id="g4774"
         transform="matrix(-1,0,0,1,-1102.1725,0)">
        <ellipse
           style="color:#000000;display:inline;overflow:visible;visibility:visible;opacity:1;fill:#a59182;fill-opacity:1;fill-rule:nonzero;stroke:none;stroke-width:4;stroke-linecap:round;stroke-linejoin:round;stroke-miterlimit:4;stroke-dasharray:none;stroke-dashoffset:0;stroke-opacity:1;marker:none;enable-background:accumulate"
           id="ellipse4776"
           cx="-912.59198"
           cy="196.26544"
           rx="36.971535"
           ry="31.360962"
           transform="matrix(0.80582953,-0.59214759,0.58855512,0.80845709,0,0)" />
        <circle
           style="color:#000000;display:inline;overflow:visible;visibility:visible;opacity:1;fill:#000000;fill-opacity:1;fill-rule:nonzero;stroke:none;stroke-width:4;stroke-linecap:round;stroke-linejoin:round;stroke-miterlimit:4;stroke-dasharray:none;stroke-dashoffset:0;stroke-opacity:1;marker:none;enable-background:accumulate"
           id="circle4778"
           cx="-618.84473"
           cy="693.88428"
           r="19.066629" />
        <ellipse
           style="color:#000000;display:inline;overflow:visible;visibility:visible;opacity:1;fill:#f5989d;fill-opacity:1;fill-rule:nonzero;stroke:none;stroke-width:4;stroke-linecap:round;stroke-linejoin:round;stroke-miterlimit:4;stroke-dasharray:none;stroke-dashoffset:0;stroke-opacity:1;marker:none;enable-background:accumulate"
           id="ellipse4780"
           cx="-619.76801"
           cy="726.33551"
           rx="15.365367"
           ry="8.3337584" />
        <circle
           style="color:#000000;display:inline;overflow:visible;visibility:visible;opacity:1;fill:#ffffff;fill-opacity:1;fill-rule:nonzero;stroke:none;stroke-width:4;stroke-linecap:round;stroke-linejoin:round;stroke-miterlimit:4;stroke-dasharray:none;stroke-dashoffset:0;stroke-opacity:1;marker:none;enable-background:accumulate"
           id="circle4782"
           cx="-615.68799"
           cy="689.71741"
           r="9.0913734" />
        <circle
           r="4.7982249"
           cy="703.60699"
           cx="-618.59216"
           id="circle4784"
           style="color:#000000;display:inline;overflow:visible;visibility:visible;opacity:1;fill:#ffffff;fill-opacity:1;fill-rule:nonzero;stroke:none;stroke-width:4;stroke-linecap:round;stroke-linejoin:round;stroke-miterlimit:4;stroke-dasharray:none;stroke-dashoffset:0;stroke-opacity:1;marker:none;enable-background:accumulate" />
      </g>
      <path
         sodipodi:nodetypes="aaaaaaaaaaaaaaaa"
         inkscape:connector-curvature="0"
         id="path4786"
         d="m -653.22848,666.60096 c 3.14995,-7.51556 7.64591,-14.89436 13.91539,-20.10005 5.50223,-4.56863 12.50012,-7.78333 19.58462,-8.76157 22.19005,-3.06405 44.08569,10.07015 66.4846,9.79234 19.17579,-0.23784 37.52724,-9.10812 56.6923,-9.79234 10.35252,-0.3696 21.89001,-1.97866 30.92308,3.09233 7.69998,4.3226 12.54324,12.99541 15.97691,21.13082 3.98694,9.44627 5.86518,20.22825 4.63847,30.40778 -1.77873,14.76021 -8.24646,29.21973 -17.00769,41.23089 -9.411,12.90192 -22.36088,23.67798 -36.5923,30.92316 -15.44687,7.86396 -33.1779,12.01539 -50.5077,12.36927 -17.34766,0.35422 -34.70384,-4.4128 -51.02307,-10.30774 -9.54259,-3.44701 -19.14969,-7.76626 -26.80001,-14.43079 -10.75225,-9.3668 -19.66709,-21.41076 -25.25382,-34.53087 -3.895,-9.14714 -5.22618,-19.43537 -5.15386,-29.37701 0.0535,-7.34494 1.28387,-14.87202 4.12308,-21.64622 z"
         style="fill:none;fill-opacity:1;fill-rule:evenodd;stroke:#cba78e;stroke-width:6.05593395;stroke-linecap:butt;stroke-linejoin:miter;stroke-opacity:1" />
      <g
         id="g4788"
         transform="translate(51.824998,79.802051)">
        <path
           inkscape:connector-curvature="0"
           id="path4790"
           d="M -613.21429,510.57649 -605,494.8622 l 18.57143,-6.07142 -3.57143,17.5 -10.35714,5.71428 z"
           style="fill:#ffffff;fill-rule:evenodd;stroke:none;stroke-width:1px;stroke-linecap:butt;stroke-linejoin:miter;stroke-opacity:1" />
        <g
           transform="translate(-163.64471,-49.497475)"
           id="g4792">
          <path
             style="fill:#ff8ca7;fill-opacity:1;fill-rule:evenodd;stroke:#000000;stroke-width:1px;stroke-linecap:butt;stroke-linejoin:miter;stroke-opacity:1"
             d="m -428.05214,516.35001 7.3236,-0.88388 1.13643,-16.92006 z"
             id="path4794"
             inkscape:connector-curvature="0" />
          <path
             style="fill:#f6ea08;fill-opacity:1;fill-rule:evenodd;stroke:#000000;stroke-width:1px;stroke-linecap:butt;stroke-linejoin:miter;stroke-opacity:1"
             d="m -449.11612,562.00506 10.54469,-0.71428 13.57143,-7.85715 -3.92857,37.5 -15,3.92857 -8.21429,-0.71428 -9.64286,-10 z"
             id="path4796"
             inkscape:connector-curvature="0"
             sodipodi:nodetypes="cccccccc" />
          <path
             style="fill:#00eed2;fill-opacity:1;fill-rule:evenodd;stroke:#000000;stroke-width:1px;stroke-linecap:butt;stroke-linejoin:miter;stroke-opacity:1"
             d="m -442.5,542.3622 8.57143,-15.35714 12.85714,-1.78571 -1.78571,12.85714 L -435,542.71935 Z"
             id="path4798"
             inkscape:connector-curvature="0" />
          <path
             style="fill:#ffffff;fill-opacity:1;fill-rule:evenodd;stroke:#000000;stroke-width:1px;stroke-linecap:butt;stroke-linejoin:miter;stroke-opacity:1"
             d="m -433.39286,526.82649 4.28572,-10.44643 8.92857,-1.16071 -1.78572,9.10714 z"
             id="path4800"
             inkscape:connector-curvature="0" />
          <path
             style="fill:none;fill-rule:evenodd;stroke:#000000;stroke-width:5;stroke-linecap:round;stroke-linejoin:round;stroke-miterlimit:4;stroke-dasharray:none;stroke-opacity:1"
             d="m -461.63972,584.1565 41.54486,-86.86652 c 0,0 2.37839,-5.27637 2.2705,-3.03705 l -0.15345,3.18517 -11.8421,93.78947 c 0,0 -4.81636,6.08363 -20.20305,3.03046 -7.91663,-1.57089 -11.61676,-10.10153 -11.61676,-10.10153 z"
             id="path4802"
             inkscape:connector-curvature="0"
             sodipodi:nodetypes="ccsccsc" />
          <path
             style="fill:none;fill-rule:evenodd;stroke:#000000;stroke-width:5;stroke-linecap:round;stroke-linejoin:round;stroke-miterlimit:4;stroke-dasharray:none;stroke-opacity:1"
             d="m -450.29587,561.72615 c 0,0 7.45648,-0.14785 11.06968,-0.96205 4.8407,-1.09081 13.94981,-5.19645 13.94981,-5.19645"
             id="path4804"
             inkscape:connector-curvature="0"
             sodipodi:nodetypes="cac" />
          <path
             style="fill:none;fill-rule:evenodd;stroke:#000000;stroke-width:5;stroke-linecap:round;stroke-linejoin:round;stroke-miterlimit:4;stroke-dasharray:none;stroke-opacity:1"
             d="m -441.60492,544.52301 c 0,0 5.20791,-1.2867 8.58136,-2.35207 3.55419,-1.12245 9.21271,-3.85493 9.21271,-3.85493"
             id="path4806"
             inkscape:connector-curvature="0"
             sodipodi:nodetypes="csc" />
          <path
             style="fill:none;fill-rule:evenodd;stroke:#000000;stroke-width:5;stroke-linecap:round;stroke-linejoin:round;stroke-miterlimit:4;stroke-dasharray:none;stroke-opacity:1"
             d="m -433.75134,528.34557 11.49049,-3.283"
             id="path4808"
             inkscape:connector-curvature="0"
             sodipodi:nodetypes="cc" />
          <path
             style="fill:none;fill-rule:evenodd;stroke:#000000;stroke-width:5;stroke-linecap:round;stroke-linejoin:round;stroke-miterlimit:4;stroke-dasharray:none;stroke-opacity:1"
             d="m -429.15646,517.25236 9.2022,-3.06739"
             id="path4810"
             inkscape:connector-curvature="0"
             sodipodi:nodetypes="cc" />
        </g>
      </g>
    </g>
  </g>
</svg>
